<?xml version="1.0" encoding="UTF-8"?>
<svg id="Layer_1" xmlns="http://www.w3.org/2000/svg" version="1.1" viewBox="0 0 1440 395">
  <!-- Generator: Adobe Illustrator 29.3.1, SVG Export Plug-In . SVG Version: 2.1.0 Build 151)  -->
  <defs>
    <style>
      .st0 {
        fill: #421a4c;
      }

      .st1 {
        fill: #8e2176;
      }

      .st2 {
        fill: #f8a290;
      }

      .st3 {
        fill: #e54547;
      }

      .st4 {
        fill: #f67e58;
      }
    </style>
  </defs>
  <path class="st1" d="M-4.5,227.2c-3.6,2.5-4.6,7.5-2,11.1,2.5,3.6,7.5,4.6,11.1,2l-9.1-13.2ZM320,67.8l2.4,7.6-2.4-7.6ZM670,27l-7.8,1.7,7.8-1.7ZM484,193l-4.5-6.6,4.5,6.6ZM732,167.8l-3-7.4,3,7.4ZM1180,101.8l.9-8-.9,8ZM4.5,240.3c57.8-39.9,202.2-128.5,317.9-165l-4.8-15.3C199.6,97.3,53.6,187.1-4.5,227.2l9.1,13.2ZM322.4,75.4c72.7-22.9,157.5-43.7,225-53.4,33.9-4.9,62.9-6.9,83.9-5.2,10.5.9,18.4,2.6,23.7,5,5.2,2.4,6.8,4.9,7.2,6.9l15.6-3.3c-1.9-8.7-8.4-14.5-16.2-18.1-7.7-3.6-17.7-5.5-29-6.5-22.7-1.9-53.2.4-87.5,5.3-68.6,9.9-154.3,30.9-227.6,54l4.8,15.3ZM662.2,28.7c3.6,16.8.9,29.8-6.4,41.4-7.5,12-20.1,22.9-37.5,34.2-17.3,11.4-38.4,22.7-62.2,35.9-23.7,13.1-49.8,28-76.7,46.2l9,13.2c26.2-17.8,51.8-32.3,75.4-45.4,23.5-13,45.3-24.7,63.2-36.5,17.9-11.8,32.9-24.2,42.2-39.1,9.6-15.3,12.9-32.6,8.4-53.3l-15.6,3.3ZM479.5,186.4c-34.8,23.6-70.3,58-85.7,87.3-7.5,14.3-11.7,30.1-4.5,42.8,7.3,13,23.9,18.5,46.8,18.5v-16c-21.8,0-30.1-5.4-32.8-10.3-2.9-5.1-2.3-14.1,4.8-27.5,13.7-26.1,46.9-58.7,80.6-81.5l-9-13.2ZM436,335c57.9,0,92.3-24.9,132-56.6,39.5-31.6,85.2-70.7,167-103.2l-5.9-14.9c-84.2,33.5-131.6,74-171,105.6-39.3,31.4-69.9,53.1-122,53.1v16ZM735,175.2c95.3-37.9,261.9-85.3,444.2-65.5l1.7-15.9c-185.8-20.2-355.2,28.1-451.8,66.5l5.9,14.9ZM1179.1,109.7c146.3,15.9,222.7,46.3,261.9,65.2l7-14.4c-40.9-19.7-119-50.7-267.1-66.8l-1.7,15.9Z"/>
  <path class="st4" d="M-4.5,243c-3.6,2.5-4.6,7.5-2,11.1s7.5,4.6,11.1,2l-9.1-13.2ZM320,83.6l2.4,7.6-2.4-7.6ZM670,42.8l-7.8,1.7,7.8-1.7ZM484,208.8l-4.5-6.6,4.5,6.6ZM732,183.6l-3-7.4,3,7.4ZM1180,117.6l.9-8-.9,8ZM4.5,256.2c57.8-39.9,202.2-128.5,317.9-165l-4.8-15.3C199.6,113.1,53.6,202.9-4.5,243l9.1,13.2ZM322.4,91.2c72.7-22.9,157.5-43.7,225-53.4,33.9-4.9,62.9-6.9,83.9-5.2,10.5.9,18.4,2.6,23.7,5,5.2,2.4,6.8,4.9,7.2,6.9l15.6-3.3c-1.9-8.7-8.4-14.5-16.2-18.1-7.7-3.6-17.7-5.5-29-6.5-22.7-1.9-53.2.4-87.5,5.3-68.6,9.9-154.3,30.9-227.6,54l4.8,15.3ZM662.2,44.5c3.6,16.8.9,29.8-6.4,41.4-7.5,12-20.1,22.9-37.5,34.2-17.3,11.4-38.4,22.7-62.2,35.9-23.7,13.1-49.8,28-76.7,46.2l9,13.2c26.2-17.8,51.8-32.3,75.4-45.4,23.5-13,45.3-24.7,63.2-36.5,17.9-11.8,32.9-24.2,42.2-39.1,9.6-15.3,12.9-32.6,8.4-53.3l-15.6,3.3ZM479.5,202.2c-34.8,23.6-70.3,58-85.7,87.3-7.5,14.3-11.7,30.1-4.5,42.8,7.3,13,23.9,18.5,46.8,18.5v-16c-21.8,0-30.1-5.4-32.8-10.3-2.9-5.1-2.3-14.1,4.8-27.5,13.7-26.1,46.9-58.7,80.6-81.5l-9-13.2ZM436,350.8c57.9,0,92.3-24.9,132-56.6,39.5-31.6,85.2-70.7,167-103.2l-5.9-14.9c-84.2,33.5-131.6,74-171,105.6-39.3,31.4-69.9,53.1-122,53.1v16ZM735,191c95.3-37.9,261.9-85.3,444.2-65.5l1.7-15.9c-185.8-20.2-355.2,28.1-451.8,66.5l5.9,14.9ZM1179.1,125.6c146.3,15.9,222.7,46.3,261.9,65.2l7-14.4c-40.9-19.7-119-50.7-267.1-66.8l-1.7,15.9Z"/>
  <path class="st0" d="M-4.5,258c-3.6,2.5-4.6,7.5-2,11.1s7.5,4.6,11.1,2l-9.1-13.2ZM320,98.6l2.4,7.6-2.4-7.6ZM670,57.8l-7.8,1.7,7.8-1.7ZM484,223.8l-4.5-6.6,4.5,6.6ZM732,198.6l-3-7.4,3,7.4ZM1180,132.6l.9-8-.9,8ZM4.5,271.2c57.8-39.9,202.2-128.5,317.9-165l-4.8-15.3C199.6,128.1,53.6,217.9-4.5,258l9.1,13.2ZM322.4,106.2c72.7-22.9,157.5-43.7,225-53.4,33.9-4.9,62.9-6.9,83.9-5.2,10.5.9,18.4,2.6,23.7,5,5.2,2.4,6.8,4.9,7.2,6.9l15.6-3.3c-1.9-8.7-8.4-14.5-16.2-18.1-7.7-3.6-17.7-5.5-29-6.5-22.7-1.9-53.2.4-87.5,5.3-68.6,9.9-154.3,30.9-227.6,54l4.8,15.3ZM662.2,59.5c3.6,16.8.9,29.8-6.4,41.4-7.5,12-20.1,22.9-37.5,34.2-17.3,11.4-38.4,22.7-62.2,35.9-23.7,13.1-49.8,28-76.7,46.2l9,13.2c26.2-17.8,51.8-32.3,75.4-45.4,23.5-13,45.3-24.7,63.2-36.5,17.9-11.8,32.9-24.2,42.2-39.1,9.6-15.3,12.9-32.6,8.4-53.3l-15.6,3.3ZM479.5,217.2c-34.8,23.6-70.3,58-85.7,87.3-7.5,14.3-11.7,30.1-4.5,42.8,7.3,13,23.9,18.5,46.8,18.5v-16c-21.8,0-30.1-5.4-32.8-10.3-2.9-5.1-2.3-14.1,4.8-27.5,13.7-26.1,46.9-58.7,80.6-81.5l-9-13.2ZM436,365.8c57.9,0,92.3-24.9,132-56.6,39.5-31.6,85.2-70.7,167-103.2l-5.9-14.9c-84.2,33.5-131.6,74-171,105.6-39.3,31.4-69.9,53.1-122,53.1v16ZM735,206c95.3-37.9,261.9-85.3,444.2-65.5l1.7-15.9c-185.8-20.2-355.2,28.1-451.8,66.5l5.9,14.9ZM1179.1,140.6c146.3,15.9,222.7,46.3,261.9,65.2l7-14.4c-40.9-19.7-119-50.7-267.1-66.8l-1.7,15.9Z"/>
  <path class="st3" d="M-4.5,274c-3.6,2.5-4.6,7.5-2,11.1s7.5,4.6,11.1,2l-9.1-13.2ZM320,114.6l2.4,7.6-2.4-7.6ZM670,73.8l-7.8,1.7,7.8-1.7ZM484,239.8l-4.5-6.6,4.5,6.6ZM732,214.6l-3-7.4,3,7.4ZM1180,148.6l.9-8-.9,8ZM4.5,287.2c57.8-39.9,202.2-128.5,317.9-165l-4.8-15.3C199.6,144.1,53.6,233.9-4.5,274l9.1,13.2ZM322.4,122.2c72.7-22.9,157.5-43.7,225-53.4,33.9-4.9,62.9-6.9,83.9-5.2,10.5.9,18.4,2.6,23.7,5,5.2,2.4,6.8,4.9,7.2,6.9l15.6-3.3c-1.9-8.7-8.4-14.5-16.2-18.1-7.7-3.6-17.7-5.5-29-6.5-22.7-1.9-53.2.4-87.5,5.3-68.6,9.9-154.3,30.9-227.6,54l4.8,15.3ZM662.2,75.5c3.6,16.8.9,29.8-6.4,41.4-7.5,12-20.1,22.9-37.5,34.2-17.3,11.4-38.4,22.7-62.2,35.9-23.7,13.1-49.8,28-76.7,46.2l9,13.2c26.2-17.8,51.8-32.3,75.4-45.4,23.5-13,45.3-24.7,63.2-36.5,17.9-11.8,32.9-24.2,42.2-39.1,9.6-15.3,12.9-32.6,8.4-53.3l-15.6,3.3ZM479.5,233.2c-34.8,23.6-70.3,58-85.7,87.3-7.5,14.3-11.7,30.1-4.5,42.8,7.3,13,23.9,18.5,46.8,18.5v-16c-21.8,0-30.1-5.4-32.8-10.3-2.9-5.1-2.3-14.1,4.8-27.5,13.7-26.1,46.9-58.7,80.6-81.5l-9-13.2ZM436,381.8c57.9,0,92.3-24.9,132-56.6,39.5-31.6,85.2-70.7,167-103.2l-5.9-14.9c-84.2,33.5-131.6,74-171,105.6-39.3,31.4-69.9,53.1-122,53.1v16ZM735,222c95.3-37.9,261.9-85.3,444.2-65.5l1.7-15.9c-185.8-20.2-355.2,28.1-451.8,66.5l5.9,14.9ZM1179.1,156.6c146.3,15.9,222.7,46.3,261.9,65.2l7-14.4c-40.9-19.7-119-50.7-267.1-66.8l-1.7,15.9Z"/>
  <path class="st2" d="M-4.5,287c-3.6,2.5-4.6,7.5-2,11.1s7.5,4.6,11.1,2l-9.1-13.2ZM320,127.6l2.4,7.6-2.4-7.6ZM670,86.8l-7.8,1.7,7.8-1.7ZM484,252.8l-4.5-6.6,4.5,6.6ZM732,227.6l-3-7.4,3,7.4ZM1180,161.6l.9-8-.9,8ZM4.5,300.2c57.8-39.9,202.2-128.5,317.9-165l-4.8-15.3C199.6,157.1,53.6,246.9-4.5,287l9.1,13.2ZM322.4,135.2c72.7-22.9,157.5-43.7,225-53.4,33.9-4.9,62.9-6.9,83.9-5.2,10.5.9,18.4,2.6,23.7,5,5.2,2.4,6.8,4.9,7.2,6.9l15.6-3.3c-1.9-8.7-8.4-14.5-16.2-18.1-7.7-3.6-17.7-5.5-29-6.5-22.7-1.9-53.2.4-87.5,5.3-68.6,9.9-154.3,30.9-227.6,54l4.8,15.3ZM662.2,88.5c3.6,16.8.9,29.8-6.4,41.4-7.5,12-20.1,22.9-37.5,34.2-17.3,11.4-38.4,22.7-62.2,35.9-23.7,13.1-49.8,28-76.7,46.2l9,13.2c26.2-17.8,51.8-32.3,75.4-45.4,23.5-13,45.3-24.7,63.2-36.5,17.9-11.8,32.9-24.2,42.2-39.1,9.6-15.3,12.9-32.7,8.4-53.3l-15.6,3.3ZM479.5,246.2c-34.8,23.6-70.3,58-85.7,87.3-7.5,14.3-11.7,30.1-4.5,42.8,7.3,13,23.9,18.5,46.8,18.5v-16c-21.8,0-30.1-5.4-32.8-10.3-2.9-5.1-2.3-14.1,4.8-27.5,13.7-26.1,46.9-58.7,80.6-81.5l-9-13.2ZM436,394.8c57.9,0,92.3-24.9,132-56.6,39.5-31.6,85.2-70.7,167-103.2l-5.9-14.9c-84.2,33.5-131.6,74-171,105.6-39.3,31.4-69.9,53.1-122,53.1v16ZM735,235c95.3-37.9,261.9-85.3,444.2-65.5l1.7-15.9c-185.8-20.2-355.2,28.1-451.8,66.5l5.9,14.9ZM1179.1,169.6c146.3,15.9,222.7,46.3,261.9,65.2l7-14.4c-40.9-19.7-119-50.7-267.1-66.8l-1.7,15.9Z"/>
</svg>